ModelForces
version=1
nRows=4
nColumns=206
inDegrees=no

This file contains the forces exerted on a model during a simulation.

A force is a generalized force, meaning that it can be either a force (N) or a torque (Nm).

Units are S.I. units (second, meters, Newtons, ...)
Angles are in degrees.

endheader
time	glut_med1_r	glut_med2_r	glut_med3_r	glut_min1_r	glut_min2_r	glut_min3_r	semimem_r	semiten_r	bifemlh_r	bifemsh_r	sar_r	add_long_r	add_brev_r	add_mag1_r	add_mag2_r	add_mag3_r	tfl_r	pect_r	grac_r	glut_max1_r	glut_max2_r	glut_max3_r	iliacus_r	psoas_r	quad_fem_r	gem_r	peri_r	rect_fem_r	vas_med_r	vas_int_r	vas_lat_r	med_gas_r	lat_gas_r	soleus_r	tib_post_r	flex_dig_r	flex_hal_r	tib_ant_r	per_brev_r	per_long_r	per_tert_r	ext_dig_r	ext_hal_r	glut_med1_l	glut_med2_l	glut_med3_l	glut_min1_l	glut_min2_l	glut_min3_l	semimem_l	semiten_l	bifemlh_l	bifemsh_l	sar_l	add_long_l	add_brev_l	add_mag1_l	add_mag2_l	add_mag3_l	tfl_l	pect_l	grac_l	glut_max1_l	glut_max2_l	glut_max3_l	iliacus_l	psoas_l	quad_fem_l	gem_l	peri_l	rect_fem_l	vas_med_l	vas_int_l	vas_lat_l	med_gas_l	lat_gas_l	soleus_l	tib_post_l	flex_dig_l	flex_hal_l	tib_ant_l	per_brev_l	per_long_l	per_tert_l	ext_dig_l	ext_hal_l	ercspn_r	ercspn_l	intobl_r	intobl_l	extobl_r	extobl_l	femur_lat_meniscii_l.femur_lat_l.force.X	femur_lat_meniscii_l.femur_lat_l.force.Y	femur_lat_meniscii_l.femur_lat_l.force.Z	femur_lat_meniscii_l.femur_lat_l.torque.X	femur_lat_meniscii_l.femur_lat_l.torque.Y	femur_lat_meniscii_l.femur_lat_l.torque.Z	femur_lat_meniscii_l.meniscus_lat_l.force.X	femur_lat_meniscii_l.meniscus_lat_l.force.Y	femur_lat_meniscii_l.meniscus_lat_l.force.Z	femur_lat_meniscii_l.meniscus_lat_l.torque.X	femur_lat_meniscii_l.meniscus_lat_l.torque.Y	femur_lat_meniscii_l.meniscus_lat_l.torque.Z	femur_med_meniscii_l.femur_med_l.force.X	femur_med_meniscii_l.femur_med_l.force.Y	femur_med_meniscii_l.femur_med_l.force.Z	femur_med_meniscii_l.femur_med_l.torque.X	femur_med_meniscii_l.femur_med_l.torque.Y	femur_med_meniscii_l.femur_med_l.torque.Z	femur_med_meniscii_l.meniscus_med_l.force.X	femur_med_meniscii_l.meniscus_med_l.force.Y	femur_med_meniscii_l.meniscus_med_l.force.Z	femur_med_meniscii_l.meniscus_med_l.torque.X	femur_med_meniscii_l.meniscus_med_l.torque.Y	femur_med_meniscii_l.meniscus_med_l.torque.Z	femur_lat_meniscii_r.femur_lat_r.force.X	femur_lat_meniscii_r.femur_lat_r.force.Y	femur_lat_meniscii_r.femur_lat_r.force.Z	femur_lat_meniscii_r.femur_lat_r.torque.X	femur_lat_meniscii_r.femur_lat_r.torque.Y	femur_lat_meniscii_r.femur_lat_r.torque.Z	femur_lat_meniscii_r.meniscus_lat_r.force.X	femur_lat_meniscii_r.meniscus_lat_r.force.Y	femur_lat_meniscii_r.meniscus_lat_r.force.Z	femur_lat_meniscii_r.meniscus_lat_r.torque.X	femur_lat_meniscii_r.meniscus_lat_r.torque.Y	femur_lat_meniscii_r.meniscus_lat_r.torque.Z	femur_med_meniscii_r.femur_med_r.force.X	femur_med_meniscii_r.femur_med_r.force.Y	femur_med_meniscii_r.femur_med_r.force.Z	femur_med_meniscii_r.femur_med_r.torque.X	femur_med_meniscii_r.femur_med_r.torque.Y	femur_med_meniscii_r.femur_med_r.torque.Z	femur_med_meniscii_r.meniscus_med_r.force.X	femur_med_meniscii_r.meniscus_med_r.force.Y	femur_med_meniscii_r.meniscus_med_r.force.Z	femur_med_meniscii_r.meniscus_med_r.torque.X	femur_med_meniscii_r.meniscus_med_r.torque.Y	femur_med_meniscii_r.meniscus_med_r.torque.Z	femur_med_tibia_l.tibia_upper_l.force.X	femur_med_tibia_l.tibia_upper_l.force.Y	femur_med_tibia_l.tibia_upper_l.force.Z	femur_med_tibia_l.tibia_upper_l.torque.X	femur_med_tibia_l.tibia_upper_l.torque.Y	femur_med_tibia_l.tibia_upper_l.torque.Z	femur_med_tibia_l.femur_med_l.force.X	femur_med_tibia_l.femur_med_l.force.Y	femur_med_tibia_l.femur_med_l.force.Z	femur_med_tibia_l.femur_med_l.torque.X	femur_med_tibia_l.femur_med_l.torque.Y	femur_med_tibia_l.femur_med_l.torque.Z	femur_lat_tibia_l.tibia_upper_l.force.X	femur_lat_tibia_l.tibia_upper_l.force.Y	femur_lat_tibia_l.tibia_upper_l.force.Z	femur_lat_tibia_l.tibia_upper_l.torque.X	femur_lat_tibia_l.tibia_upper_l.torque.Y	femur_lat_tibia_l.tibia_upper_l.torque.Z	femur_lat_tibia_l.femur_lat_l.force.X	femur_lat_tibia_l.femur_lat_l.force.Y	femur_lat_tibia_l.femur_lat_l.force.Z	femur_lat_tibia_l.femur_lat_l.torque.X	femur_lat_tibia_l.femur_lat_l.torque.Y	femur_lat_tibia_l.femur_lat_l.torque.Z	femur_med_tibia_r.tibia_upper_r.force.X	femur_med_tibia_r.tibia_upper_r.force.Y	femur_med_tibia_r.tibia_upper_r.force.Z	femur_med_tibia_r.tibia_upper_r.torque.X	femur_med_tibia_r.tibia_upper_r.torque.Y	femur_med_tibia_r.tibia_upper_r.torque.Z	femur_med_tibia_r.femur_med_r.force.X	femur_med_tibia_r.femur_med_r.force.Y	femur_med_tibia_r.femur_med_r.force.Z	femur_med_tibia_r.femur_med_r.torque.X	femur_med_tibia_r.femur_med_r.torque.Y	femur_med_tibia_r.femur_med_r.torque.Z	femur_lat_tibia_r.tibia_upper_r.force.X	femur_lat_tibia_r.tibia_upper_r.force.Y	femur_lat_tibia_r.tibia_upper_r.force.Z	femur_lat_tibia_r.tibia_upper_r.torque.X	femur_lat_tibia_r.tibia_upper_r.torque.Y	femur_lat_tibia_r.tibia_upper_r.torque.Z	femur_lat_tibia_r.femur_lat_r.force.X	femur_lat_tibia_r.femur_lat_r.force.Y	femur_lat_tibia_r.femur_lat_r.force.Z	femur_lat_tibia_r.femur_lat_r.torque.X	femur_lat_tibia_r.femur_lat_r.torque.Y	femur_lat_tibia_r.femur_lat_r.torque.Z	aACL_R	pACL_R	aPCL_R	pPCL_R	aMCL_R	mMCL_R	pMCL_R	aLCL_R	mLCL_R	pLCL_R	aPCL_L	pPCL_L	aMCL_L	aLCL_L	ground_prescribedForce_-20_fx	ground_prescribedForce_-20_fy	ground_prescribedForce_-20_fz
      0.00000000	     37.48087652	     28.28714471	     30.25598133	     13.28977762	     14.47626353	     15.91713841	     27.47192734	     19.91104922	     31.42904919	     34.15035619	      7.54404356	     27.93927808	     20.68957741	     14.51222487	     12.16230296	     19.66717628	     12.38053610	     11.16605282	      7.61648058	     18.12681708	     27.55933735	     20.56469162	     63.94906620	     55.74758807	     18.09791099	      9.16719286	     20.03897647	     56.35709815	     41.92307073	     43.57226991	     55.99503934	     51.57537787	     26.36790092	    152.72720615	     92.44658902	     14.93332009	     15.26895791	     41.82851940	     21.62523106	     46.40594865	      8.86060096	     25.04818486	      7.96045570	     37.48087652	     28.28714471	     30.25598133	     13.28977762	     14.47626353	     15.91713841	     42.06683902	     20.39635155	     37.67631238	     36.01822118	      7.59254209	     27.93927808	     20.68957741	     14.51222487	     12.16230296	     19.66717628	     12.58139899	     11.16605282	      7.78214370	     18.12681708	     27.55933735	     20.56469162	     63.94906620	     55.74758807	     18.09791099	      9.16719286	     20.03897647	     52.59637061	     32.48786114	     37.22481259	     39.87514307	     67.71424671	     31.64857027	    152.72720615	     92.44658902	     14.93332009	     15.26895791	     41.82851940	     21.62523106	     46.40594865	      8.86060096	     25.04818486	      7.96045570	    124.99446086	    124.99446086	     44.97041513	     44.97041513	     60.98287244	     60.98287244	      2.76307435	     50.99597937	     -9.56042239	      5.21997485	     -0.02578839	      1.48581788	     -2.76307435	    -50.99597937	      9.56042239	     -1.74637766	      0.02558040	     -0.48301696	     -3.31599387	     20.97615968	     -3.40468921	      0.94473225	     -0.02138609	     -1.00501789	      3.31599387	    -20.97615968	      3.40468921	      0.28075727	      0.00368718	     -0.29758878	    301.32554893	    409.59634697	      4.37800904	    -12.15431100	      7.74608681	    124.66557733	   -301.32554893	   -409.59634697	     -4.37800904	     12.47068476	     -9.23339203	     -7.29183844	     -7.37829021	     66.19844602	     -3.36156333	      2.66178778	      0.19603048	     -2.05283238	      7.37829021	    -66.19844602	      3.36156333	     -1.05451412	     -0.14261707	     -0.42311279	      0.00000000	      0.00000000	      0.00000000	      0.00000000	      0.00000000	      0.00000000	      0.00000000	      0.00000000	      0.00000000	      0.00000000	      0.00000000	      0.00000000	      0.00000000	      0.00000000	      0.00000000	      0.00000000	      0.00000000	      0.00000000	      0.00000000	      0.00000000	      0.00000000	      0.00000000	      0.00000000	      0.00000000	     -7.91646448	    -20.30655922	      6.07050290	     -0.47579376	      0.10064849	     -0.28362643	      7.91646448	     20.30655922	     -6.07050290	      2.89600178	     -0.10742083	      3.41713420	      0.00000000	      0.00000000	      0.00000000	      0.00000000	      0.00000000	      0.00000000	      0.00000000	      0.00000000	      0.00000000	      0.00000000	      0.00000000	      0.00000000	      0.00000000	      0.00000000	      1.73067428	     39.60002205	      0.00000000	      0.04380286	      0.70913731	      0.00000000	      0.00000000	      0.00000000	      0.00000000	      0.00000000	      0.00000001	      0.00000000	    103.36618800	    -37.62220000	      0.00000000
      0.00124572	     37.46508528	     28.26106381	     30.23264199	     13.25898258	     14.45865743	     15.91010797	     27.49121468	     19.92191783	     31.59362543	     34.85594100	      7.53200195	     27.91807292	     20.61985181	     14.49899221	     12.15435232	     19.66060094	     12.42391529	     11.14647133	      7.62802798	     18.11288283	     27.53848433	     20.55157282	     63.91307824	     55.72676517	     18.07457227	      9.16394631	     20.03611917	     56.45751651	     41.67503528	     43.47190087	     55.79834709	     51.09475456	     26.17646079	    149.73558008	     92.43950827	     15.03829578	     15.33844614	     42.85966747	     21.31141120	     46.03786959	      9.00806198	     25.12837301	      8.00947727	     37.46508528	     28.26106381	     30.23264199	     13.25898258	     14.45865743	     15.91010797	     42.05977052	     20.38683807	     37.66842430	     35.97313997	      7.57179360	     27.91807292	     20.61985181	     14.49899221	     12.15435232	     19.66060094	     12.57974451	     11.14647133	      7.76988464	     18.11288283	     27.53848433	     20.55157282	     63.91307824	     55.72676517	     18.07457227	      9.16394631	     20.03611917	     52.58442476	     32.47056752	     37.20764591	     39.85766740	     67.70728482	     31.64525845	    152.70556361	     92.44112945	     14.93440591	     15.26968424	     41.81727818	     21.62119342	     46.40190985	      8.85635314	     25.04055166	      7.95739678	    124.72473171	    124.72473171	     44.94404598	     44.94404598	     60.95439511	     60.95439511	      2.76307435	     50.99597937	     -9.56042239	      5.21997485	     -0.02578839	      1.48581788	     -2.76307435	    -50.99597937	      9.56042239	     -1.74637766	      0.02558040	     -0.48301696	     -3.31599387	     20.97615968	     -3.40468921	      0.94473225	     -0.02138609	     -1.00501789	      3.31599387	    -20.97615968	      3.40468921	      0.28075727	      0.00368718	     -0.29758878	    256.91204398	    388.61825426	     53.07513876	    -32.08903138	      6.86931990	    106.08322091	   -256.91204398	   -388.61825426	    -53.07513876	     13.67156113	     -8.38858078	     -5.80873152	    -12.18913710	     65.45671775	      2.82848912	      0.00780866	      0.18224124	     -4.11859193	     12.18913710	    -65.45671775	     -2.82848912	     -0.77284056	     -0.13800061	     -0.20206275	      0.00000000	      0.00000000	      0.00000000	      0.00000000	      0.00000000	      0.00000000	      0.00000000	      0.00000000	      0.00000000	      0.00000000	      0.00000000	      0.00000000	      0.00000000	      0.00000000	      0.00000000	      0.00000000	      0.00000000	      0.00000000	      0.00000000	      0.00000000	      0.00000000	      0.00000000	      0.00000000	      0.00000000	     -5.42941837	    -17.07554915	      3.55929536	     -0.33488718	      0.06744918	     -0.18710559	      5.42941837	     17.07554915	     -3.55929536	      1.77867753	     -0.07518214	      2.35239298	      0.00000000	      0.00000000	      0.00000000	      0.00000000	      0.00000000	      0.00000000	      0.00000000	      0.00000000	      0.00000000	      0.00000000	      0.00000000	      0.00000000	      0.00000000	      0.00000000	      9.86332813	     61.87345333	      0.00000000	      6.06074780	      7.09974924	      0.00000000	      0.00000000	      0.00000000	      0.00000000	      0.00000000	      0.00000001	      0.00000000	    103.36618800	    -37.62220000	      0.00000000
      0.00249145	     37.41820963	     28.18630165	     30.16502745	     13.17911386	     14.40931649	     15.88926622	     27.45458386	     19.87986694	     31.83009658	     35.82451871	      7.44829133	     27.85659323	     20.45264409	     14.46103831	     12.13113263	     19.64096579	     12.50413112	     11.09357176	      7.59148776	     18.07251457	     27.47802043	     20.51321697	     63.80821538	     55.66478862	     18.00939106	      9.15429719	     20.02747227	     56.51748286	     40.97616094	     43.07089679	     55.21166752	     49.23372832	     25.36049349	    140.77472441	     92.24673415	     15.33239217	     15.52446513	     46.02727516	     20.48586241	     45.02436287	      9.51334226	     25.41679386	      8.16389198	     37.41820963	     28.18630165	     30.16502745	     13.17911386	     14.40931649	     15.88926622	     42.03842131	     20.35868253	     37.64466437	     35.84689023	      7.51960667	     27.85659323	     20.45264409	     14.46103831	     12.13113263	     19.64096579	     12.57473960	     11.09357176	      7.73633778	     18.07251457	     27.47802043	     20.51321697	     63.80821538	     55.66478862	     18.00939106	      9.15429719	     20.02747227	     52.54848431	     32.41963632	     37.15683742	     39.80586507	     67.68615890	     31.63520952	    152.64006271	     92.42453430	     14.93757849	     15.27176397	     41.78355407	     21.60900987	     46.38963856	      8.84380332	     25.01773782	      7.94828419	    124.01699024	    124.01699024	     44.86665458	     44.86665458	     60.87122827	     60.87122827	      2.76307435	     50.99597937	     -9.56042239	      5.21997485	     -0.02578839	      1.48581788	     -2.76307435	    -50.99597937	      9.56042239	     -1.74637766	      0.02558040	     -0.48301696	     -3.31599387	     20.97615968	     -3.40468921	      0.94473225	     -0.02138609	     -1.00501789	      3.31599387	    -20.97615968	      3.40468921	      0.28075727	      0.00368718	     -0.29758878	    243.32185635	    378.06095717	     57.53825292	    -33.69055297	      6.53265361	    100.37971175	   -243.32185635	   -378.06095717	    -57.53825292	     13.50020986	     -7.99823399	     -5.36760744	    -13.91476296	     66.29750180	      4.10358111	     -0.51641265	      0.19407584	     -4.84353145	     13.91476296	    -66.29750180	     -4.10358111	     -0.73478138	     -0.14854461	     -0.13472403	      0.00000000	      0.00000000	      0.00000000	      0.00000000	      0.00000000	      0.00000000	      0.00000000	      0.00000000	      0.00000000	      0.00000000	      0.00000000	      0.00000000	      0.00000000	      0.00000000	      0.00000000	      0.00000000	      0.00000000	      0.00000000	      0.00000000	      0.00000000	      0.00000000	      0.00000000	      0.00000000	      0.00000000	     -3.47642787	    -12.00064145	      2.29644423	     -0.22711358	      0.04321410	     -0.11791680	      3.47642787	     12.00064145	     -2.29644423	      1.16294486	     -0.04800813	      1.50955456	      0.00000000	      0.00000000	      0.00000000	      0.00000000	      0.00000000	      0.00000000	      0.00000000	      0.00000000	      0.00000000	      0.00000000	      0.00000000	      0.00000000	      0.00000000	      0.00000000	     12.30205284	     70.29584526	      0.00000000	      5.29062915	      6.45619387	      0.00000000	      0.00000000	      0.00000000	      0.00000000	      0.00000000	      0.00000001	      0.00000000	    103.36618800	    -37.62220000	      0.00000000
      0.00373717	     37.34114683	     28.06822140	     30.05694949	     13.06569614	     14.33331795	     15.85505644	     27.31410281	     19.75037834	     32.00138339	     36.43315578	      7.29497676	     27.75823292	     20.23224906	     14.40105076	     12.09367157	     19.60845947	     12.58769303	     11.01523656	      7.48403053	     18.00798183	     27.38127019	     20.45125782	     63.63947277	     55.56258274	     17.90937264	      9.13841080	     20.01292951	     56.41141713	     39.89633960	     42.33795926	     54.26617824	     45.99198096	     23.88786316	    127.02174519	     91.77080242	     15.79122285	     15.80576916	     51.31928726	     19.30530787	     43.50256329	     10.38799231	     25.92302417	      8.41814629	     37.34114683	     28.06822140	     30.05694949	     13.06569614	     14.33331795	     15.85505644	     42.00259837	     20.31255810	     37.60492505	     35.65257926	      7.44769537	     27.75823292	     20.23224906	     14.40105076	     12.09367157	     19.60845947	     12.56632604	     11.01523656	      7.68598182	     18.00798183	     27.38127019	     20.45125782	     63.63947277	     55.56258274	     17.90937264	      9.13841080	     20.01292951	     52.48845686	     32.33666403	     37.07358928	     39.72083365	     67.65051245	     31.61825546	    152.52988969	     92.39647571	     14.94266241	     15.27500116	     41.72741849	     21.58858998	     46.36890176	      8.82328537	     24.97998250	      7.93326368	    123.00011659	    123.00011659	     44.74109415	     44.74109415	     60.73704171	     60.73704171	      2.76307435	     50.99597937	     -9.56042239	      5.21997485	     -0.02578839	      1.48581788	     -2.76307435	    -50.99597937	      9.56042239	     -1.74637766	      0.02558040	     -0.48301696	     -3.31599387	     20.97615968	     -3.40468921	      0.94473225	     -0.02138609	     -1.00501789	      3.31599387	    -20.97615968	      3.40468921	      0.28075727	      0.00368718	     -0.29758878	    230.66849728	    367.87699831	     54.37865933	    -32.09428329	      6.18450134	     95.07583808	   -230.66849728	   -367.87699831	    -54.37865933	     13.04807242	     -7.56153589	     -4.96805979	    -14.57773849	     68.59716365	      3.97621830	     -0.41168995	      0.21031925	     -5.09245597	     14.57773849	    -68.59716365	     -3.97621830	     -0.78261124	     -0.16141322	     -0.12984925	      0.00000000	      0.00000000	      0.00000000	      0.00000000	      0.00000000	      0.00000000	      0.00000000	      0.00000000	      0.00000000	      0.00000000	      0.00000000	      0.00000000	      0.00000000	      0.00000000	      0.00000000	      0.00000000	      0.00000000	      0.00000000	      0.00000000	      0.00000000	      0.00000000	      0.00000000	      0.00000000	      0.00000000	     -2.24802762	     -8.02862970	      1.56523253	     -0.15350299	      0.02813811	     -0.07617273	      2.24802762	      8.02862970	     -1.56523253	      0.79030082	     -0.03078404	      0.97718639	      0.00000000	      0.00000000	      0.00000000	      0.00000000	      0.00000000	      0.00000000	      0.00000000	      0.00000000	      0.00000000	      0.00000000	      0.00000000	      0.00000000	      0.00000000	      0.00000000	     13.00173103	     74.24697383	      0.00000000	      2.95236005	      4.14944600	      0.00000000	      0.00000000	      0.00000000	      0.00000000	      0.00000000	      0.00000001	      0.00000000	    103.36618800	    -37.62220000	      0.00000000
